<svg xmlns="http://www.w3.org/2000/svg" xmlns:svg="http://www.w3.org/2000/svg" id="svg28" width="24" height="24" version="1.1"><metadata id="metadata34"/><defs id="defs32"><linearGradient id="a" x1="3.086" x2="20.912" y1="14.025" y2="10.882" gradientTransform="matrix(1.2237677,0,0,1.2237677,-2.6967438,-3.4257455)" gradientUnits="userSpaceOnUse"><stop id="stop865" offset="0" stop-color="#c8e6fa"/><stop id="stop867" offset=".286" stop-color="#b7ddf6"/><stop id="stop869" offset=".852" stop-color="#8ac7eb"/><stop id="stop871" offset="1" stop-color="#7dc1e8"/></linearGradient></defs><path id="path883" d="m 23.062342,11.818728 c 0,6.10293 -4.961154,11.061636 -11.073873,11.061636 -6.1163915,0 -11.07387435,-4.958706 -11.07387435,-11.061636 0,-6.112719 4.95870665,-11.07020197 11.07387435,-11.07020197 6.112719,0 11.073873,4.95748297 11.073873,11.07020197 z" style="fill:#eaf5fd;stroke:#4774b4;stroke-width:1.5;stroke-linecap:round;stroke-linejoin:round;fill-opacity:1;stroke-miterlimit:4;stroke-dasharray:none"/><path id="path885" d="m 11.988469,1.3310395 c 5.827581,5.8288055 5.827581,15.1380055 0,20.9692585" style="fill:none;stroke:#4774b4;stroke-width:1.5;stroke-linecap:round;stroke-linejoin:round;stroke-miterlimit:4;stroke-dasharray:none"/><path id="path887" d="m 11.988469,1.3310395 c -5.828806,5.8288055 -5.828806,15.1380055 0,20.9692585" style="fill:none;stroke:#4774b4;stroke-width:1.5;stroke-linecap:round;stroke-linejoin:round;stroke-miterlimit:4;stroke-dasharray:none"/><path id="path889" d="m 1.4971081,11.818728 c 2.3312774,0 18.6502199,0 20.9827209,0" style="fill:none;stroke:#4774b4;stroke-width:1.5;stroke-linecap:round;stroke-linejoin:round;stroke-miterlimit:4;stroke-dasharray:none"/><path id="path891" d="m 20.147328,4.8285675 c -3.273579,2.3471864 -12.6158215,2.5295278 -16.3189425,0" style="fill:none;stroke:#4774b4;stroke-width:1.5;stroke-linecap:round;stroke-linejoin:round;stroke-miterlimit:4;stroke-dasharray:none"/><path id="path893" d="m 20.147328,18.801547 c -4.218327,-2.284775 -11.8803371,-2.441417 -16.3189425,0" style="fill:none;stroke:#4774b4;stroke-width:1.5;stroke-linecap:round;stroke-linejoin:round;stroke-miterlimit:4;stroke-dasharray:none"/><g id="g8" transform="matrix(0.27012134,0,0,0.27012134,10.119014,11.333976)"><circle id="circle4" cx="24.25" cy="20" r="23.004" fill="#fff" stroke="#000" stroke-width="2.16"/><path id="path6-9" fill="#555" d="m 24.25,-7 c 14.87,0 27,12.046 27,27 0,14.87 -12.13,27 -27,27 -14.954,0 -27,-12.13 -27,-27 0,-14.954 12.046,-27 27,-27 z m 0,48.018 c 11.63,0 21.018,-9.47 21.018,-21.101 0,-11.63 -9.387,-21.019 -21.018,-21.019 -11.63,0 -21.102,9.388 -21.102,21.019 0,11.63 9.471,21.101 21.102,21.101 z M 32.225,23.24 h -8.473 c -0.914,0 -1.662,-0.332 -2.16,-0.997 L 12.038,11.858 c -2.576,-2.741 1.661,-6.729 4.32,-4.07 l 8.64,9.47 h 7.227 c 4.071,0 3.656,5.982 0,5.982 z M 22.588,4.132 c 0,-0.83 0.748,-1.578 1.579,-1.578 0.83,0 1.578,0.748 1.578,1.578 0,0.831 -0.747,1.579 -1.578,1.579 -0.83,0 -1.579,-0.748 -1.579,-1.579 z m 11.05,4.32 c 0,-0.83 0.747,-1.578 1.578,-1.578 0.83,0 1.579,0.748 1.579,1.578 0,0.831 -0.748,1.579 -1.579,1.579 -0.83,0 -1.578,-0.748 -1.578,-1.579 z m 4.901,11.382 c 0,-0.83 0.748,-1.579 1.579,-1.579 0.83,0 1.578,0.748 1.578,1.579 0,0.83 -0.748,1.578 -1.578,1.578 -0.831,0 -1.579,-0.747 -1.579,-1.578 z m -4.403,11.132 c 0,-0.83 0.748,-1.578 1.579,-1.578 0.83,0 1.578,0.747 1.578,1.578 0,0.83 -0.748,1.579 -1.578,1.579 -0.831,0 -1.579,-0.748 -1.579,-1.579 z m -11.63,4.819 c 0,-0.831 0.747,-1.579 1.578,-1.579 0.83,0 1.578,0.748 1.578,1.579 0,0.83 -0.747,1.578 -1.578,1.578 -0.83,0 -1.579,-0.748 -1.579,-1.578 z m -10.8,-4.32 c 0,-0.831 0.747,-1.579 1.578,-1.579 0.83,0 1.578,0.748 1.578,1.579 0,0.83 -0.747,1.578 -1.578,1.578 -0.83,0 -1.579,-0.748 -1.579,-1.578 z M 6.72,19.834 c 0,-0.83 0.747,-1.579 1.578,-1.579 0.831,0 1.579,0.748 1.579,1.579 0,0.83 -0.748,1.578 -1.579,1.578 -0.83,0 -1.578,-0.747 -1.578,-1.578 z" style="fill:#41af3d;fill-opacity:1"/></g></svg>