<svg xmlns="http://www.w3.org/2000/svg" xmlns:svg="http://www.w3.org/2000/svg" id="svg861" width="16" height="16" version="1.1"><metadata id="metadata867"/><path id="path851" fill="#fff" d="m 1.036 2.7051761 h 13.964 v 12.294824 h -13.964 z"/><g id="g859" transform="matrix(0.18334,0,0,0.18334,1.277631,6.7645584)"><circle id="circle855" cx="24.25" cy="20" r="23.004" fill="#fff" stroke="#000" stroke-width="2.16"/><path id="path857" fill="#41af3d" d="m 24.25,-7 c 14.87,0 27,12.046 27,27 0,14.87 -12.13,27 -27,27 -14.954,0 -27,-12.13 -27,-27 0,-14.954 12.046,-27 27,-27 z m 0,48.018 c 11.63,0 21.018,-9.47 21.018,-21.101 0,-11.63 -9.387,-21.019 -21.018,-21.019 -11.63,0 -21.102,9.388 -21.102,21.019 0,11.63 9.471,21.101 21.102,21.101 z M 32.225,23.24 h -8.473 c -0.914,0 -1.662,-0.332 -2.16,-0.997 L 12.038,11.858 c -2.576,-2.741 1.661,-6.729 4.32,-4.07 l 8.64,9.47 h 7.227 c 4.071,0 3.656,5.982 0,5.982 z M 22.588,4.132 c 0,-0.83 0.748,-1.578 1.579,-1.578 0.83,0 1.578,0.748 1.578,1.578 0,0.831 -0.747,1.579 -1.578,1.579 -0.83,0 -1.579,-0.748 -1.579,-1.579 z m 11.05,4.32 c 0,-0.83 0.747,-1.578 1.578,-1.578 0.83,0 1.579,0.748 1.579,1.578 0,0.831 -0.748,1.579 -1.579,1.579 -0.83,0 -1.578,-0.748 -1.578,-1.579 z m 4.901,11.382 c 0,-0.83 0.748,-1.579 1.579,-1.579 0.83,0 1.578,0.748 1.578,1.579 0,0.83 -0.748,1.578 -1.578,1.578 -0.831,0 -1.579,-0.747 -1.579,-1.578 z m -4.403,11.132 c 0,-0.83 0.748,-1.578 1.579,-1.578 0.83,0 1.578,0.747 1.578,1.578 0,0.83 -0.748,1.579 -1.578,1.579 -0.831,0 -1.579,-0.748 -1.579,-1.579 z m -11.63,4.819 c 0,-0.831 0.747,-1.579 1.578,-1.579 0.83,0 1.578,0.748 1.578,1.579 0,0.83 -0.747,1.578 -1.578,1.578 -0.83,0 -1.579,-0.748 -1.579,-1.578 z m -10.8,-4.32 c 0,-0.831 0.747,-1.579 1.578,-1.579 0.83,0 1.578,0.748 1.578,1.579 0,0.83 -0.747,1.578 -1.578,1.578 -0.83,0 -1.579,-0.748 -1.579,-1.578 z M 6.72,19.834 c 0,-0.83 0.747,-1.579 1.578,-1.579 0.831,0 1.579,0.748 1.579,1.579 0,0.83 -0.748,1.578 -1.579,1.578 -0.83,0 -1.578,-0.747 -1.578,-1.578 z"/></g><text style="font-style:normal;font-weight:400;font-size:8px;line-height:1.25;font-family:sans-serif;letter-spacing:0;word-spacing:0;fill:#000;fill-opacity:1;stroke:none" id="text871" x="2.283" y="6.809" xml:space="preserve"><tspan id="tspan869" x="2.283" y="6.809" style="font-style:normal;font-variant:normal;font-weight:700;font-stretch:normal;font-size:8px;font-family:sans-serif;-inkscape-font-specification:'sans-serif Bold'">TZ</tspan></text><circle style="fill:red;fill-rule:evenodd;stroke-width:1.64122" id="path873" cx="13.314" cy="10.657" r="2.116"/></svg>